<svg width="30" height="30" viewBox="0 0 30 30" fill="none" xmlns="http://www.w3.org/2000/svg">
<circle cx="15" cy="15" r="14" stroke="white" stroke-width="2"/>
<path d="M14.5676 12.1309C12.7043 12.1309 11.2014 13.6338 11.2014 15.4971C11.2014 17.3604 12.7043 18.8633 14.5676 18.8633C16.4309 18.8633 17.9338 17.3604 17.9338 15.4971C17.9338 13.6338 16.4309 12.1309 14.5676 12.1309ZM14.5676 17.6855C13.3635 17.6855 12.3791 16.7041 12.3791 15.4971C12.3791 14.29 13.3606 13.3086 14.5676 13.3086C15.7747 13.3086 16.7561 14.29 16.7561 15.4971C16.7561 16.7041 15.7717 17.6855 14.5676 17.6855ZM18.8567 11.9932C18.8567 12.4297 18.5051 12.7783 18.0715 12.7783C17.635 12.7783 17.2864 12.4268 17.2864 11.9932C17.2864 11.5596 17.6379 11.208 18.0715 11.208C18.5051 11.208 18.8567 11.5596 18.8567 11.9932ZM21.0862 12.79C21.0364 11.7383 20.7961 10.8066 20.0256 10.0391C19.2581 9.27148 18.3264 9.03125 17.2747 8.97852C16.1907 8.91699 12.9417 8.91699 11.8577 8.97852C10.8088 9.02832 9.8772 9.26855 9.10669 10.0361C8.33618 10.8037 8.09888 11.7354 8.04614 12.7871C7.98462 13.8711 7.98462 17.1201 8.04614 18.2041C8.09595 19.2559 8.33618 20.1875 9.10669 20.9551C9.8772 21.7227 10.8059 21.9629 11.8577 22.0156C12.9417 22.0771 16.1907 22.0771 17.2747 22.0156C18.3264 21.9658 19.2581 21.7256 20.0256 20.9551C20.7932 20.1875 21.0334 19.2559 21.0862 18.2041C21.1477 17.1201 21.1477 13.874 21.0862 12.79ZM19.6858 19.3672C19.4573 19.9414 19.0149 20.3838 18.4377 20.6152C17.5735 20.958 15.5227 20.8789 14.5676 20.8789C13.6125 20.8789 11.5588 20.9551 10.6975 20.6152C10.1233 20.3867 9.68091 19.9443 9.44946 19.3672C9.10669 18.5029 9.18579 16.4521 9.18579 15.4971C9.18579 14.542 9.10962 12.4883 9.44946 11.627C9.67798 11.0527 10.1204 10.6104 10.6975 10.3789C11.5618 10.0361 13.6125 10.1152 14.5676 10.1152C15.5227 10.1152 17.5764 10.0391 18.4377 10.3789C19.012 10.6074 19.4543 11.0498 19.6858 11.627C20.0286 12.4912 19.9495 14.542 19.9495 15.4971C19.9495 16.4521 20.0286 18.5059 19.6858 19.3672Z" fill="white"/>
</svg>
